<svg width="15" height="14" viewBox="0 0 15 14" fill="none" xmlns="http://www.w3.org/2000/svg">
<path d="M14.5002 6.98682V11.339C14.5023 11.5551 14.4607 11.7694 14.378 11.9698C14.2952 12.1702 14.1728 12.3527 14.0177 12.5069C13.8627 12.6611 13.678 12.784 13.4743 12.8686C13.2705 12.9532 13.0517 12.9977 12.8303 12.9998H2.29927C2.0756 12.9978 1.85457 12.9523 1.64906 12.8662C1.44356 12.78 1.25768 12.6547 1.10227 12.4977C0.946856 12.3408 0.825012 12.1552 0.743836 11.9518C0.66266 11.7484 0.623776 11.5312 0.629448 11.313V6.98682" stroke="#0446A1" stroke-linecap="round" stroke-linejoin="round"/>
<path d="M7.56445 9.40772V1" stroke="#0446A1" stroke-linecap="round" stroke-linejoin="round"/>
<path d="M4.90234 6.96094L7.56447 9.4338L10.2266 6.96094" stroke="#0446A1" stroke-linecap="round" stroke-linejoin="round"/>
</svg>
