<svg width="21" height="22" viewBox="0 0 21 22" fill="none" xmlns="http://www.w3.org/2000/svg">
<path d="M10.5 21.5C16.299 21.5 21 16.799 21 11C21 5.20101 16.299 0.5 10.5 0.5C4.70101 0.5 0 5.20101 0 11C0 16.799 4.70101 21.5 10.5 21.5Z" fill="#C7B893"/>
<path fill-rule="evenodd" clip-rule="evenodd" d="M11.499 6.95019C11.499 6.39791 11.0513 5.9502 10.499 5.9502C9.94674 5.9502 9.49902 6.39791 9.49902 6.95019V9.99999H6.44922C5.89693 9.99999 5.44922 10.4477 5.44922 11C5.44922 11.5523 5.89693 12 6.44922 12L9.49902 12V15.0498C9.49902 15.6021 9.94674 16.0498 10.499 16.0498C11.0513 16.0498 11.499 15.6021 11.499 15.0498L11.499 12L14.5488 12C15.1011 12 15.5488 11.5523 15.5488 11C15.5488 10.4477 15.1011 9.99999 14.5488 9.99999H11.499L11.499 6.95019Z" fill="white"/>
</svg>
